<?xml version="1.0" standalone="no"?>
<!DOCTYPE svg PUBLIC "-//W3C//DTD SVG 20010904//EN"
 "http://www.w3.org/TR/2001/REC-SVG-20010904/DTD/svg10.dtd">
<svg version="1.0" xmlns="http://www.w3.org/2000/svg"
 width="268.000000pt" height="188.000000pt" viewBox="0 0 268.000000 188.000000"
 preserveAspectRatio="xMidYMid meet">

<g transform="translate(0.000000,188.000000) scale(0.100000,-0.100000)"
fill="#006442" stroke="none">
<path d="M1190 1865 c-409 -64 -739 -413 -779 -822 l-7 -73 36 0 c20 0 68 15
110 36 67 32 170 57 170 41 0 -4 -7 -25 -16 -47 -14 -35 -20 -40 -49 -40 -18
0 -66 -16 -106 -35 -41 -19 -88 -35 -106 -35 -31 0 -33 -2 -33 -35 0 -30 3
-35 23 -35 12 0 60 18 107 40 107 50 125 51 116 9 -3 -17 -6 -35 -6 -40 0 -5
-10 -9 -22 -9 -12 0 -46 -14 -76 -31 -30 -17 -71 -33 -91 -37 -37 -7 -37 -8
-29 -41 8 -30 12 -33 38 -27 16 3 48 17 70 31 22 14 54 28 70 32 29 5 30 4 30
-29 0 -31 -3 -36 -30 -42 -17 -3 -47 -17 -68 -31 -20 -14 -45 -25 -54 -25 -21
0 -23 -25 -5 -57 l13 -23 54 35 c70 45 100 46 100 5 0 -23 -4 -30 -20 -30 -11
0 -40 -15 -64 -34 -47 -36 -47 -34 -10 -84 1 -2 21 10 45 27 23 17 47 31 54
31 7 0 10 11 7 29 -4 26 -1 29 35 34 57 10 106 46 114 85 4 18 18 49 32 70 14
20 40 57 56 81 35 50 38 79 15 159 -34 116 -5 242 71 312 l27 25 -30 -55 c-53
-94 -58 -141 -27 -265 31 -126 30 -131 -46 -239 -59 -85 -65 -123 -31 -200
l20 -44 -21 -20 c-62 -57 -169 -81 -182 -42 -9 29 -34 25 -72 -12 l-33 -32 22
-23 21 -22 34 29 c40 35 49 37 58 10 4 -14 -3 -27 -27 -49 l-33 -29 24 -26 25
-26 27 26 c27 26 49 26 49 0 0 -8 -7 -19 -15 -26 -8 -7 -15 -18 -15 -25 0 -18
53 -51 58 -37 2 7 28 48 58 93 40 61 54 91 54 118 0 27 3 32 10 21 21 -32 11
-92 -29 -164 -54 -99 -57 -110 -27 -124 23 -10 26 -9 37 26 6 20 28 68 47 107
46 93 46 126 -6 212 -77 127 -78 165 -8 261 78 105 80 121 41 245 -29 90 -31
133 -10 204 14 47 91 151 103 138 3 -2 -2 -13 -11 -23 -61 -67 -74 -194 -32
-307 28 -74 34 -149 15 -185 -7 -13 -32 -50 -56 -83 -65 -88 -62 -119 24 -260
50 -82 49 -118 -11 -236 -54 -108 -59 -137 -21 -151 34 -13 34 -14 34 18 0 16
21 71 46 123 59 119 61 157 14 231 -94 148 -98 183 -33 274 85 120 88 141 33
278 -51 129 -38 230 40 319 47 54 55 45 18 -20 -30 -52 -33 -66 -33 -138 0
-70 4 -90 34 -155 22 -48 36 -95 38 -130 4 -58 3 -61 -75 -176 -44 -65 -40
-109 16 -196 85 -131 87 -156 23 -296 -22 -48 -43 -104 -46 -124 -7 -34 -5
-39 20 -48 40 -15 42 -14 47 43 3 31 20 86 42 135 61 136 60 153 -34 301 -58
93 -55 138 12 222 16 20 33 51 38 70 l10 34 100 0 c99 0 99 0 105 -26 3 -15
26 -55 51 -90 59 -84 60 -121 4 -210 -94 -148 -95 -165 -34 -301 22 -49 39
-104 42 -136 5 -56 7 -57 47 -42 25 9 27 14 20 48 -3 20 -24 76 -46 124 -64
140 -62 165 23 296 56 87 60 131 16 196 -96 141 -98 159 -37 309 37 93 41 108
36 169 -3 50 -12 80 -36 122 -35 64 -28 73 18 21 48 -55 64 -94 69 -170 4 -61
0 -80 -27 -149 -56 -139 -53 -159 32 -280 65 -91 61 -126 -33 -274 -47 -74
-45 -112 14 -231 25 -52 46 -107 46 -123 0 -32 0 -31 34 -18 37 14 33 38 -21
149 -60 120 -61 156 -11 238 87 142 89 172 21 264 -78 106 -83 151 -34 277 38
97 22 230 -36 294 -9 10 -14 21 -11 23 12 13 89 -91 103 -138 21 -71 19 -114
-10 -204 -39 -124 -37 -140 41 -245 70 -96 69 -134 -8 -261 -52 -87 -52 -116
1 -228 23 -48 41 -93 41 -101 0 -23 10 -27 36 -16 29 14 27 25 -27 124 -40 72
-50 131 -29 164 7 11 10 6 10 -22 0 -27 12 -55 46 -105 26 -37 52 -80 58 -94
l11 -27 30 24 c26 20 28 26 17 41 -22 31 -25 44 -13 56 8 8 18 4 39 -16 l28
-27 25 26 24 26 -33 29 c-24 22 -31 35 -27 49 9 27 18 25 58 -10 l34 -29 21
22 22 23 -33 32 c-38 37 -63 41 -72 12 -13 -39 -120 -15 -182 42 l-21 20 20
44 c32 74 27 117 -21 183 -23 31 -51 76 -62 100 l-21 43 27 110 c31 128 26
174 -27 268 l-30 55 27 -25 c76 -70 105 -196 71 -312 -22 -78 -20 -109 11
-154 15 -21 42 -61 60 -88 18 -26 33 -61 33 -76 0 -24 8 -32 52 -54 29 -14 63
-26 76 -26 21 0 24 -4 20 -30 -3 -19 0 -30 7 -30 7 0 31 -14 54 -31 24 -17 44
-29 45 -27 37 50 37 48 -10 84 -24 19 -53 34 -64 34 -16 0 -20 7 -20 30 0 41
30 40 100 -5 l54 -35 13 23 c19 34 16 46 -19 62 -18 8 -49 24 -68 35 -19 11
-43 20 -52 20 -14 0 -18 8 -18 36 0 35 1 36 29 31 16 -4 52 -20 79 -37 65 -40
89 -39 100 3 8 31 8 32 -29 39 -20 4 -61 20 -91 37 -30 17 -64 31 -75 31 -19
0 -33 31 -33 71 0 18 37 8 120 -31 47 -22 95 -40 108 -40 19 0 22 5 22 35 0
33 -2 35 -33 35 -18 0 -65 16 -106 35 -40 19 -88 35 -106 35 -29 0 -35 5 -49
40 -9 22 -16 43 -16 47 0 16 103 -9 170 -41 42 -21 90 -36 110 -36 l36 0 -7
73 c-10 107 -35 190 -88 302 -57 119 -118 202 -209 286 -137 125 -308 207
-492 234 -114 18 -176 18 -290 0z m176 -98 l22 -52 57 -7 c32 -4 60 -9 62 -12
2 -2 -16 -20 -40 -40 l-45 -36 21 -56 20 -55 21 20 c30 28 126 71 159 71 32 0
32 0 8 -42 -11 -18 -27 -49 -35 -69 l-15 -35 56 28 c31 15 69 28 84 28 l29 0
-38 -59 c-20 -32 -45 -73 -54 -90 -17 -31 -19 -31 -45 -17 -16 7 -62 24 -103
37 -142 44 -357 28 -483 -37 -26 -14 -28 -14 -45 17 -9 17 -34 58 -54 90 l-38
59 29 0 c15 0 53 -13 84 -28 l56 -28 -15 35 c-8 20 -24 51 -35 69 -24 42 -24
42 9 42 32 0 128 -43 158 -71 l21 -20 20 55 21 56 -45 36 c-24 20 -42 38 -40
40 2 3 30 8 62 12 l57 7 22 52 c11 29 23 53 26 53 3 0 15 -24 26 -53z m-735
-357 c22 -12 79 -107 79 -132 0 -16 3 -15 43 2 43 20 141 27 164 12 9 -5 -15
-36 -75 -97 l-87 -90 -55 -1 c-38 -1 -78 -11 -127 -33 -39 -17 -88 -31 -107
-31 l-37 0 52 68 c68 88 107 173 115 250 4 34 9 62 11 62 2 0 13 -5 24 -10z
m1453 -52 c8 -77 47 -162 115 -250 l52 -68 -37 0 c-19 0 -68 14 -107 31 -49
22 -89 32 -127 33 l-55 1 -87 90 c-60 61 -84 92 -75 97 23 15 121 8 165 -12
35 -16 42 -17 42 -4 0 37 73 144 98 144 5 0 12 -28 16 -62z m-659 -7 c37 -16
95 -72 95 -90 0 -4 -24 -7 -54 -7 -71 1 -96 -20 -96 -80 0 -43 15 -68 26 -41
3 9 23 14 64 14 72 0 79 -11 56 -90 -29 -101 -105 -177 -176 -177 -71 0 -147
76 -176 177 -24 83 -18 91 71 89 l75 -2 0 36 c0 53 -28 75 -96 74 -30 0 -54 3
-54 7 0 4 12 22 27 40 35 41 96 69 153 69 25 0 63 -9 85 -19z m-172 -135 c26
-20 21 -29 -14 -22 -17 3 -39 1 -49 -4 -21 -11 -35 2 -26 25 7 19 65 19 89 1z
m262 -11 c0 -13 -5 -18 -15 -16 -8 3 -30 4 -47 4 -18 -1 -33 2 -33 6 0 18 28
32 60 29 27 -2 35 -7 35 -23z"/>
<path d="M1291 1517 l-43 -32 46 -3 c25 -2 67 -2 92 0 l47 3 -46 33 c-25 17
-47 32 -49 32 -1 -1 -23 -15 -47 -33z"/>
<path d="M1300 1061 c0 -12 36 -20 60 -14 34 9 22 23 -20 23 -22 0 -40 -4 -40
-9z"/>
<path d="M1284 987 c6 -10 21 -20 34 -23 31 -8 65 2 78 23 10 17 6 18 -56 18
-62 0 -66 -1 -56 -18z"/>
</g>
</svg>
